<svg width="24" height="24" viewBox="0 0 24 24" xmlns="http://www.w3.org/2000/svg"><title>Combined Shape</title><path d="M0 0h24v24H0V0zm5.897 7.652v7.237a.846.846 0 0 1-.216.719L4 17.694v.275h4.766v-.275l-1.681-2.086a.876.876 0 0 1-.232-.719V8.63l4.183 9.34h.486l3.593-9.34v7.444c0 .199 0 .237-.127.367l-1.292 1.284V18h6.274v-.275l-1.247-1.254a.387.387 0 0 1-.142-.366v-9.21a.387.387 0 0 1 .142-.366L20 5.275V5h-4.422l-3.152 8.048L8.84 5H4.202v.275l1.494 1.842a.642.642 0 0 1 .201.535z" fill="#101626" fill-rule="nonzero"/></svg>