<svg width="120" height="120" viewBox="0 0 120 120" xmlns="http://www.w3.org/2000/svg"><title>Group 2</title><defs><linearGradient x1="50%" y1="0%" x2="50%" y2="100%" id="a"><stop stop-color="#FFF" offset="0%"/><stop stop-color="#F6F6F6" offset="100%"/></linearGradient></defs><g fill="none" fill-rule="evenodd"><path fill="#FFF" d="M0 0h120v120H0z"/><circle fill="url(#a)" cx="60" cy="60" r="40"/><path stroke="#101626" stroke-width="2" d="M21 12h34v32l45 36v10h-3v10h5v4l-5 4H75v-7l-11-9H53l-2-7-7-5v-4l-8-5v-8l2-3-4-3v-5h-5l-8-12v-9l-3-6h3z"/><circle fill="#29C186" opacity=".252" cx="69" cy="96" r="12"/><circle fill="#29C186" opacity=".252" cx="69" cy="96" r="8"/><circle fill="#29C186" cx="69" cy="96" r="4"/></g></svg>