<svg width="120" height="120" viewBox="0 0 120 120" xmlns="http://www.w3.org/2000/svg"><title>Group 2 Copy</title><defs><linearGradient x1="50%" y1="0%" x2="50%" y2="100%" id="a"><stop stop-color="#FFF" offset="0%"/><stop stop-color="#F6F6F6" offset="100%"/></linearGradient></defs><g fill="none" fill-rule="evenodd"><path fill="none" d="M-360-60H920v520H-360z"/><g><path fill="#FFF" d="M0 0h120v120H0z"/><circle fill="url(#a)" cx="60" cy="60" r="40"/><path d="M60 47c-7.18 0-13 5.82-13 13s5.82 13 13 13h46c7.18 0 13-5.82 13-13s-5.82-13-13-13H60zM14 83C6.82 83 1 88.82 1 96s5.82 13 13 13h46c7.18 0 13-5.82 13-13s-5.82-13-13-13H14z" stroke="#101626" stroke-width="2"/><rect stroke="#101626" stroke-width="2" x="17" y="11" width="86" height="26" rx="13"/><path fill="#29C186" d="M59 0h2v120h-2z"/></g></g></svg>