<?xml version="1.0" encoding="UTF-8"?>
<svg width="120px" height="120px" viewBox="0 0 120 120" version="1.1" xmlns="http://www.w3.org/2000/svg" xmlns:xlink="http://www.w3.org/1999/xlink">
    <!-- Generator: Sketch 50.2 (55047) - http://www.bohemiancoding.com/sketch -->
    <title>Group 2 Copy</title>
    <desc>Created with Sketch.</desc>
    <defs>
        <linearGradient x1="50%" y1="0%" x2="50%" y2="100%" id="linearGradient-1">
            <stop stop-color="#FFFFFF" offset="0%"></stop>
            <stop stop-color="#F6F6F6" offset="100%"></stop>
        </linearGradient>
    </defs>
    <g id="Page-1" stroke="none" stroke-width="1" fill="none" fill-rule="evenodd">
        <g id="home" transform="translate(-360.000000, -1140.000000)">
            <g id="communication" transform="translate(0.000000, 1080.000000)">
                <rect id="Rectangle-4" fill-opacity="0" fill="#FFFFFF" x="0" y="0" width="1280" height="520"></rect>
                <g id="Group-2-Copy" transform="translate(360.000000, 60.000000)">
                    <rect id="Rectangle-5" fill="#FFFFFF" x="0" y="0" width="120" height="120"></rect>
                    <circle id="Oval-5" fill="url(#linearGradient-1)" cx="60" cy="60" r="40"></circle>
                    <path d="M60,47 C52.8202983,47 47,52.8202983 47,60 C47,67.1797017 52.8202983,73 60,73 L106,73 C113.179702,73 119,67.1797017 119,60 C119,52.8202983 113.179702,47 106,47 L60,47 Z" id="Rectangle-8" stroke="#101626" stroke-width="2"></path>
                    <path d="M14,83 C6.82029825,83 1,88.8202983 1,96 C1,103.179702 6.82029825,109 14,109 L60,109 C67.1797017,109 73,103.179702 73,96 C73,88.8202983 67.1797017,83 60,83 L14,83 Z" id="Rectangle-8" stroke="#101626" stroke-width="2"></path>
                    <rect id="Rectangle-8" stroke="#101626" stroke-width="2" x="17" y="11" width="86" height="26" rx="13"></rect>
                    <rect id="Rectangle-9" fill="#29C186" x="59" y="0" width="2" height="120"></rect>
                </g>
            </g>
        </g>
    </g>
</svg>