<svg width="120" height="120" viewBox="0 0 120 120" xmlns="http://www.w3.org/2000/svg"><title>Group 2 Copy 2</title><defs><linearGradient x1="50%" y1="0%" x2="50%" y2="100%" id="a"><stop stop-color="#FFF" offset="0%"/><stop stop-color="#F6F6F6" offset="100%"/></linearGradient></defs><g fill="none" fill-rule="evenodd"><path fill="none" d="M-660-60H620v520H-660z"/><g><path fill="#FFF" d="M0 0h120v120H0z"/><circle fill="url(#a)" cx="60" cy="60" r="40"/><path d="M49.586 67L67 49.586V25.128c0-1.475-.108-2.034-.416-2.61a2.635 2.635 0 0 0-1.102-1.102c-.576-.308-1.135-.416-2.61-.416H5.128c-1.475 0-2.034.108-2.61.416a2.635 2.635 0 0 0-1.102 1.102c-.308.576-.416 1.135-.416 2.61v37.744c0 1.475.108 2.034.416 2.61.255.478.624.847 1.102 1.102.576.308 1.135.416 2.61.416H10v10.586L20.586 67h29z" stroke="#101626" stroke-width="2"/><path d="M110 109.586L99.414 99H57.128c-1.475 0-2.034-.108-2.61-.416a2.635 2.635 0 0 1-1.102-1.102c-.308-.576-.416-1.135-.416-2.61V57.128c0-1.475.108-2.034.416-2.61a2.635 2.635 0 0 1 1.102-1.102c.576-.308 1.135-.416 2.61-.416h57.744c1.475 0 2.034.108 2.61.416.478.255.847.624 1.102 1.102.308.576.416 1.135.416 2.61v37.744c0 1.475-.108 2.034-.416 2.61a2.635 2.635 0 0 1-1.102 1.102c-.576.308-1.135.416-2.61.416H110v10.586z" stroke="#29C186" stroke-width="2"/><path fill="#101626" d="M10 30h36v2H10zM10 37h24v2H10zM10 44h32v2H10zM10 51h20v2H10z"/><path fill="#29C186" d="M62 62h36v2H62zM62 69h24v2H62zM62 76h32v2H62zM62 83h20v2H62z"/></g></g></svg>