<svg width="118" height="118" viewBox="0 0 118 118" xmlns="http://www.w3.org/2000/svg"><title>Group 2 Copy 3</title><defs><linearGradient x1="50%" y1="0%" x2="50%" y2="100%" id="a"><stop stop-color="#FFF" offset="0%"/><stop stop-color="#F6F6F6" offset="100%"/></linearGradient></defs><g fill="none" fill-rule="evenodd"><path fill="none" d="M-961-61H319v520H-961z"/><g transform="translate(-1 -1)"><path fill="none" d="M0 0h120v120H0z"/><circle fill="url(#a)" cx="60" cy="60" r="40"/><path d="M60 28c20 0 37.333 10.667 52 32-14.667 21.333-32 32-52 32S22.667 81.333 8 60c14.667-21.333 32-32 52-32z" stroke="#101626" stroke-width="2"/><path d="M60 80c11.046 0 20-8.954 20-20s-8.954-20-20-20-20 8.954-20 20 8.954 20 20 20z" stroke="#101626" stroke-width="2"/><path d="M60 70c5.523 0 10-4.477 10-10s-4.477-10-10-10-10 4.477-10 10 4.477 10 10 10zM2 118L118 2" stroke="#29C186" stroke-width="2"/></g></g></svg>